
[color=red]-------------------------------------------------[/color]
[color=red]-------------------------------------------------[/color]
File Name    : Splice[2010]R5.LiNE-LW
Type         : Movie
Format       : AVI
File Size    : 721 MB
Duration     : 01:44:08
Language     : English
Source       : R5.LiNE
Subtitles    : None
Genre        : Sci-Fi
IMDB Link    : http://www.imdb.com/title/tt1017460/
[color=red]-------------------------------------------------[/color]
[color=red]-------------------------------------------------[/color]
Format                           : MPEG-4 Visual
Format settings, BVOP            : Yes
Format settings, QPel            : No
Format settings, GMC             : No warppoints
Format settings, Matrix          : Default (H.263)
Muxing mode                      : Packed bitstream
Codec ID                         : DX50
Codec ID/Hint                    : DivX 5
Duration                         : 1h 44mn
Bit rate                         : 771 Kbps
Width                            : 704 pixels
Height                           : 368 pixels
Display aspect ratio             : 1.913
Frame rate                       : 23.976 fps
Resolution                       : 8 bits
Colorimetry                      : 4:2:0
Scan type                        : Progressive
Bits/(Pixel*Frame)               : 0.124
Stream size                      : 574 MiB (80%)
Writing library                  : DivX 6.8.5
[color=red]-------------------------------------------------[/color]
[color=red]-------------------------------------------------[/color]
Format                           : MPEG Audio
Format version                   : Version 1
Format profile                   : Layer 3
Mode                             : Joint stereo / MS Stereo
Codec ID                         : 55
Codec ID/Hint                    : MP3
Duration                         : 1h 42mn
Bit rate mode                    : Constant
Bit rate                         : 192 Kbps
Channel(s)                       : 2 channels
Sampling rate                    : 48.0 KHz
Video delay                      : 16ms
Stream size                      : 141 MiB (19%)
Alignment                        : Split accross interleaves
Interleave, duration             : 42 ms (1.02 video frame)
Interleave, preload duration     : 500 ms
[color=red]-------------------------------------------------[/color]
[color=red]-------------------------------------------------[/color]
Ignoring instructions from the pharmaceutical company 
that funds their research, groundbreaking genetic 
scientists Elsa (Sarah Polley) and Clive (Adrien Brody) 
continue with an unorthodox experiment to create a 
human-animal hybrid, a new life form they dub "Dren" 
(Delphine Chanéac). When they see their fantastical 
creation, Clive warns that it should be destroyed, but 
Elsa refuses -- a decision she'll regret when Dren makes 
deadly plans of her own.

Starring: Adrien Brody, Sarah Polley

Director: Vincenzo Natali
[color=red]-------------------------------------------------[/color]
